<svg id="visual" viewBox="0 0 900 600" width="900" height="600" xmlns="http://www.w3.org/2000/svg" xmlns:xlink="http://www.w3.org/1999/xlink" version="1.1"><rect x="0" y="0" width="900" height="600" fill="#02182B"></rect><path d="M0 103L21.5 101C43 99 86 95 128.8 108.3C171.7 121.7 214.3 152.3 257.2 158C300 163.7 343 144.3 385.8 130C428.7 115.7 471.3 106.3 514.2 122.2C557 138 600 179 642.8 179.7C685.7 180.3 728.3 140.7 771.2 128.8C814 117 857 133 878.5 141L900 149L900 0L878.5 0C857 0 814 0 771.2 0C728.3 0 685.7 0 642.8 0C600 0 557 0 514.2 0C471.3 0 428.7 0 385.8 0C343 0 300 0 257.2 0C214.3 0 171.7 0 128.8 0C86 0 43 0 21.5 0L0 0Z" fill="#002233" stroke-linecap="round" stroke-linejoin="miter"></path></svg>