<svg id="visual" viewBox="0 0 900 600" width="900" height="600" xmlns="http://www.w3.org/2000/svg" xmlns:xlink="http://www.w3.org/1999/xlink" version="1.1"><rect x="0" y="0" width="900" height="600" fill="white"></rect><path d="M0 441L21.5 432.3C43 423.7 86 406.3 128.8 409.8C171.7 413.3 214.3 437.7 257.2 452.2C300 466.7 343 471.3 385.8 472.2C428.7 473 471.3 470 514.2 462.2C557 454.3 600 441.7 642.8 448.5C685.7 455.3 728.3 481.7 771.2 474.7C814 467.7 857 427.3 878.5 407.2L900 387L900 601L878.5 601C857 601 814 601 771.2 601C728.3 601 685.7 601 642.8 601C600 601 557 601 514.2 601C471.3 601 428.7 601 385.8 601C343 601 300 601 257.2 601C214.3 601 171.7 601 128.8 601C86 601 43 601 21.5 601L0 601Z" fill="#fa7268" stroke-linecap="round" stroke-linejoin="miter"></path></svg>