<svg id="visual" viewBox="0 0 900 600" width="900" height="600" xmlns="http://www.w3.org/2000/svg" xmlns:xlink="http://www.w3.org/1999/xlink" version="1.1"><rect x="0" y="0" width="900" height="600" fill="#11162e"></rect><path d="M0 144L21.5 137.2C43 130.3 86 116.7 128.8 127.3C171.7 138 214.3 173 257.2 192.3C300 211.7 343 215.3 385.8 198.8C428.7 182.3 471.3 145.7 514.2 143.5C557 141.3 600 173.7 642.8 184.7C685.7 195.7 728.3 185.3 771.2 184.7C814 184 857 193 878.5 197.5L900 202L900 0L878.5 0C857 0 814 0 771.2 0C728.3 0 685.7 0 642.8 0C600 0 557 0 514.2 0C471.3 0 428.7 0 385.8 0C343 0 300 0 257.2 0C214.3 0 171.7 0 128.8 0C86 0 43 0 21.5 0L0 0Z" fill="#0d1321" stroke-linecap="round" stroke-linejoin="miter"></path></svg>