<?xml version="1.0" encoding="utf-8"?>
<!-- Generator: Adobe Illustrator 19.2.1, SVG Export Plug-In . SVG Version: 6.00 Build 0)  -->
<svg version="1.1" id="layer" xmlns="http://www.w3.org/2000/svg" xmlns:xlink="http://www.w3.org/1999/xlink" x="0px" y="0px"
	 viewBox="0 0 652 652" style="enable-background:new 0 0 652 652;" xml:space="preserve">
<style type="text/css">
	.st0{fill:#D50032;}
</style>
<path class="st0" d="M143.6,293c0,0-0.1-0.2-0.2-0.2c-3.1-4.3-9.6-8-17.7-8c-16,0-32,13.1-32,38.9c0,19.4,9.8,35.9,30.7,35.9
	c6.5,0,14.7-3.4,19.1-7.4v5.5h3.7h7.3h5.8c2,0,3.5-1.2,3.5-3.5v-13.6c0,0,0,0,0,0v-50.2c0-2.3-1.5-3.5-3.5-3.5h-5.8h-7.3h-3.7V293z
	 M142.1,335.8c-1.7,2.2-7,6.1-12.2,6.1c-11.1,0-13.4-10.8-13.4-19.8c0-13.5,6.7-19.4,13.8-19.4c4.4,0,9.2,2.6,11.8,4.9
	C142.1,307.8,142.1,335.8,142.1,335.8z"/>
<path class="st0" d="M38.9,253.2c-0.4,0-1,0-1.6,0.1l-13.8,1.9l-3.5,0.5v3.6v3.6v84.7v6.1v3.9h3.9H27h11c2.6,0,3.8-1.6,3.8-4.1v-8.1
	v-18.7v-1.5v-10v-1.6v-32.2V257C41.8,254.1,40.8,253.2,38.9,253.2z"/>
<path class="st0" d="M91.6,352.6L70,316.9l18.9-26.2c0.6-0.7,0.7-1.5,0.7-2c0-1.2-0.9-1.9-2.5-1.9H76.3h-4.8h-3.4l-5.5,8.9
	c-1.3,2-2.5,4.1-3.8,6.1c-1.3,2.1-2.6,4.1-3.8,6.2c-1,1.6-2,3.3-3,4.9c-1.5,2.3-2.9,4.7-4.4,7c1.7,3,3.4,6,5.1,9.1
	c1.1,2,2.2,4,3.3,6c1.3,2.3,2.6,4.7,3.9,7c1.1,1.9,2.2,3.9,3.2,5.8l0,0l5.5,9.9h4.8h3.1h13.2c1.2,0,3.1-0.3,3.1-1.9
	C92.7,354.6,92.1,353.6,91.6,352.6z"/>
<path class="st0" d="M282.6,297.2c-2.6-6-9.7-12.4-21.1-12.4c-9.2,0-18.8,3.2-25.3,9.7c-3.1-4.9-8.4-9.7-18.2-9.7
	c-7.4,0-15,2.9-20.8,7.9l-0.3-2.8c-0.3-2.2-1.7-3.1-4.2-3.1h-8.1h-3.8h-4.1v3.8v6.2v41.8v5.5v9.3v4.2h4.5h4.5h8.6
	c2.9,0,4.2-1.2,4.2-4.2v-14.8v-28.5c4.1-3.6,9-6.1,13.8-6.1c6.5,0,7.9,4.7,7.9,10.5v24.1v4.5v10.3v4.2h4.5h5.3h6.6
	c2.9,0,4.2-1.2,4.2-4.2v-14.8v-28.5c3.9-3.3,9.9-6.1,15-6.1c6.5,0,7.9,4.7,7.9,10.5v24.1v0.3v14.5v4.2h4.5h8.9h4.2
	c2.9,0,4.2-1.2,4.2-4.2v-14.8v-18.8C285.5,309.5,285.2,303,282.6,297.2z"/>
<path class="st0" d="M361.5,329.2c0,11.9,0.3,17.9,4.9,23.4c3.9,4.7,10.5,6.5,18.6,6.5c6.7,0,13.1-1.3,18.6-3.8
	c1.6-0.7,2.3-1.5,2.3-3.1c0-0.4,0-0.9-0.1-1.3l-1.7-9.3c-0.3-1.3-0.9-2-2-2c-0.6,0-1.2,0.1-2,0.4c-2.9,0.9-5.7,1.7-9.3,1.7
	c-6.4,0-7.4-4.7-7.4-12.2v-28.4h15.9c2,0,3.5-1.2,3.5-3.3v-8.4c0-2.2-1.5-3.1-3.5-3.1h-15.7v-17c0-2.6-1.2-3.8-3.3-3.8h-0.9
	l-13.1,1.7l-4.7,0.6L361.5,329.2L361.5,329.2z"/>
<path class="st0" d="M459.8,284.9c-1.3-0.3-2.9-0.6-4.1-0.6c-8.6,0-12.9,3.1-18.2,9.3l-0.3-4.4c-0.1-2.2-1.5-2.9-4.2-2.9h-9.3h-2.5
	H417v4.2v5.6v12.1v38.3v6.5v4.1h4.1h4.3h9.3c2.9,0,4.1-1.5,4.1-4.1v-43.5c3.6-3.6,8.6-5.7,13.4-5.7c1.3,0,2.8,0.1,3.9,0.4h0.3h0.4
	c1.3,0,2-0.7,2.3-2.3l2.2-13.7c0.1-0.6,0.1-0.9,0.1-1.3v-0.3C461.4,285.8,460.9,285.2,459.8,284.9z"/>
<path class="st0" d="M610.7,293.4c-4.7-4.9-11.2-8.9-21.2-8.9c-7.6,0-15.4,3.6-19.2,7.9l-0.3-2.9c-0.3-2.3-1.7-3.1-4.5-3.1h-8h-3.2
	H550v4.1v9.6v76.4v7.9v4.4h4.1h5.6h7.6c2.9,0,4.5-1.2,4.5-4.5v-30.7c3.9,3.6,9.9,5.8,16.3,5.8c9.5,0,17.2-3.8,22.5-10.2
	c6.1-7.1,9.3-17.3,9.3-28.7C620,310.5,617.1,300.1,610.7,293.4z M593.1,337c-1.9,2.6-5.5,4.8-9.7,4.8c-4.2,0-8.9-2.2-11.5-4.7v-29.7
	c2.3-2.5,7.7-5.2,11.9-5.2c3.9,0,7.7,1.5,10.2,5.2c2,3.1,3.3,7.9,3.3,14.4C597.3,328.6,596,333.1,593.1,337z"/>
<path class="st0" d="M338.7,317.1l-15-5.9c-5-1.9-5.6-3.9-5.6-5.6c0-2.1,2.2-4.7,7.1-4.7c4.7,0,10.8,1.5,16.5,3.6c0,0,0,0,0,0l0,0
	c0.1,0,0.2,0.1,0.3,0.1c0.2,0.1,0.3,0.1,0.5,0.2c0.1,0,0.3,0.1,0.4,0.1c0.1,0,0.3,0.1,0.4,0.1c0.1,0,0.2,0.1,0.4,0.1
	c0.1,0,0.2,0.1,0.3,0.1c0.1,0,0.2,0,0.2,0.1c0.1,0,0.2,0,0.3,0.1c0.1,0,0.2,0,0.3,0c0.1,0,0.1,0,0.2,0c0.1,0,0.2,0,0.3,0
	c0.1,0,0.2,0,0.4-0.1c0.1,0,0.2-0.1,0.3-0.1c0.1,0,0.2-0.1,0.3-0.2c0.1-0.1,0.2-0.1,0.3-0.2c0.1-0.1,0.2-0.2,0.2-0.3
	c0.1-0.1,0.1-0.2,0.2-0.3c0.1-0.1,0.1-0.3,0.2-0.4c0.1-0.1,0.1-0.3,0.1-0.4c0-0.1,0.1-0.2,0.1-0.4c0,0,0.1-0.8,0.2-1l1.4-9
	c0.1-0.7,0.2-1.5,0.2-1.9c0-1.2-0.7-1.9-2.1-2.5c-7.9-3.6-15.6-4.7-23.3-4.7c-13.2,0-28.3,6.4-28.3,22.3c0,10.7,7.1,17.8,15.1,20.8
	l13.2,4.9c5.5,2.1,7,3.6,7,6.4c0,3.3-3.3,5.2-8,5.2c-5.2,0-12-1.6-19-4.4c0,0,0,0,0,0v0c-0.1,0-0.2-0.1-0.4-0.1
	c-0.1,0-0.3-0.1-0.4-0.1c-0.1-0.1-0.3-0.1-0.4-0.2c-0.2-0.1-0.3-0.1-0.5-0.2c-0.1,0-0.3-0.1-0.4-0.1c-0.1,0-0.3-0.1-0.4-0.1
	c-0.1,0-0.2-0.1-0.4-0.1c-0.1,0-0.2-0.1-0.3-0.1c-0.1,0-0.2,0-0.2-0.1c-0.1,0-0.2,0-0.3-0.1c-0.1,0-0.2,0-0.3,0c-0.1,0-0.1,0-0.2,0
	c-0.1,0-0.2,0-0.3,0c-0.1,0-0.2,0-0.4,0.1c-0.1,0-0.2,0.1-0.3,0.1c-0.1,0-0.2,0.1-0.3,0.2c-0.1,0.1-0.2,0.1-0.3,0.2
	c-0.1,0.1-0.2,0.2-0.2,0.3c-0.1,0.1-0.1,0.2-0.2,0.3c-0.1,0.1-0.1,0.3-0.2,0.4c-0.1,0.1-0.1,0.3-0.1,0.4c0,0.1-0.1,0.2-0.1,0.4
	c0,0-0.6,4-1,6.5l0,0l-0.6,3.6c-0.1,0.6-0.2,1.2-0.2,1.7c0,1,0.4,2.1,2.1,2.7c8.2,3.4,16.9,5.5,24.8,5.5c14.7,0,29.8-6.5,29.8-23.6
	C352,326.3,346.2,320.1,338.7,317.1z"/>
<path class="st0" d="M533,286.4h-11.2h-1.9h-4.5v3.8v7.1v36.7c-4.1,3.5-10,5.7-14.8,5.7c-6.6,0-8.3-4.2-8.3-10.2v-39.3
	c0-3.1-1.5-3.8-4.2-3.8h-7.4H475h-4.5v3.8v8.4v34.8c0,15.7,7.1,25.9,23,25.9c8.6,0,16.6-2.8,23.3-8l0,0v6h4.2h7.7h4.1
	c3.5,0,4.5-1.2,4.5-4.8v-62.3C537.3,287.1,535.8,286.4,533,286.4z"/>
</svg>
