<svg id="visual" viewBox="0 0 900 600" width="900" height="600" xmlns="http://www.w3.org/2000/svg" xmlns:xlink="http://www.w3.org/1999/xlink" version="1.1"><rect x="0" y="0" width="900" height="600" fill="#0d1321"></rect><path d="M0 435L21.5 427.5C43 420 86 405 128.8 406C171.7 407 214.3 424 257.2 431.5C300 439 343 437 385.8 435C428.7 433 471.3 431 514.2 425.3C557 419.7 600 410.3 642.8 418.7C685.7 427 728.3 453 771.2 467C814 481 857 483 878.5 484L900 485L900 601L878.5 601C857 601 814 601 771.2 601C728.3 601 685.7 601 642.8 601C600 601 557 601 514.2 601C471.3 601 428.7 601 385.8 601C343 601 300 601 257.2 601C214.3 601 171.7 601 128.8 601C86 601 43 601 21.5 601L0 601Z" fill="#11162e" stroke-linecap="round" stroke-linejoin="miter"></path></svg>